<mxfile host="app.diagrams.net" modified="2021-04-25T04:06:17.259Z" agent="5.0 (Windows NT 10.0; Win64; x64) AppleWebKit/537.36 (KHTML, like Gecko) Chrome/90.0.4430.85 Safari/537.36" etag="ctFp35Q1p89f9yOpCJXT" version="14.6.5" type="github">
  <diagram id="QRCykr3lAWjkGnA-_J9r" name="Page-1">
    <mxGraphModel dx="1806" dy="703" grid="1" gridSize="10" guides="1" tooltips="1" connect="1" arrows="1" fold="1" page="1" pageScale="1" pageWidth="827" pageHeight="1169" math="0" shadow="0">
      <root>
        <mxCell id="0" />
        <mxCell id="1" parent="0" />
        <mxCell id="0fItrinfHYFu_SuVGKTm-26" value="" style="ellipse;whiteSpace=wrap;html=1;aspect=fixed;" vertex="1" parent="1">
          <mxGeometry x="70" y="240" width="20" height="20" as="geometry" />
        </mxCell>
        <mxCell id="0fItrinfHYFu_SuVGKTm-1" value="&lt;span style=&quot;font-size: 10.5pt&quot;&gt;考生信息录入&lt;/span&gt;" style="rounded=0;whiteSpace=wrap;html=1;" vertex="1" parent="1">
          <mxGeometry x="30" y="280" width="100" height="50" as="geometry" />
        </mxCell>
        <mxCell id="0fItrinfHYFu_SuVGKTm-25" style="edgeStyle=orthogonalEdgeStyle;rounded=0;orthogonalLoop=1;jettySize=auto;html=1;" edge="1" parent="1" source="0fItrinfHYFu_SuVGKTm-2" target="0fItrinfHYFu_SuVGKTm-1">
          <mxGeometry relative="1" as="geometry" />
        </mxCell>
        <mxCell id="0fItrinfHYFu_SuVGKTm-2" value="&lt;span style=&quot;font-size: 10.5pt&quot;&gt;考生信息整理&lt;/span&gt;" style="rounded=0;whiteSpace=wrap;html=1;" vertex="1" parent="1">
          <mxGeometry x="30" y="170" width="100" height="50" as="geometry" />
        </mxCell>
        <mxCell id="0fItrinfHYFu_SuVGKTm-28" style="edgeStyle=orthogonalEdgeStyle;rounded=0;orthogonalLoop=1;jettySize=auto;html=1;" edge="1" parent="1" source="0fItrinfHYFu_SuVGKTm-3" target="0fItrinfHYFu_SuVGKTm-4">
          <mxGeometry relative="1" as="geometry">
            <Array as="points">
              <mxPoint x="260" y="320" />
              <mxPoint x="220" y="320" />
            </Array>
          </mxGeometry>
        </mxCell>
        <mxCell id="0fItrinfHYFu_SuVGKTm-3" value="&lt;span style=&quot;font-size: 10.5pt&quot;&gt;成绩清单检查&lt;/span&gt;" style="rounded=0;whiteSpace=wrap;html=1;" vertex="1" parent="1">
          <mxGeometry x="210" y="240" width="100" height="50" as="geometry" />
        </mxCell>
        <mxCell id="0fItrinfHYFu_SuVGKTm-29" style="edgeStyle=orthogonalEdgeStyle;rounded=0;orthogonalLoop=1;jettySize=auto;html=1;" edge="1" parent="1" source="0fItrinfHYFu_SuVGKTm-4" target="0fItrinfHYFu_SuVGKTm-5">
          <mxGeometry relative="1" as="geometry" />
        </mxCell>
        <mxCell id="0fItrinfHYFu_SuVGKTm-4" value="&lt;span style=&quot;font-size: 14px&quot;&gt;合格考生审定&lt;/span&gt;" style="rounded=0;whiteSpace=wrap;html=1;" vertex="1" parent="1">
          <mxGeometry x="180" y="340" width="100" height="50" as="geometry" />
        </mxCell>
        <mxCell id="0fItrinfHYFu_SuVGKTm-5" value="&lt;span style=&quot;font-size: 10.5pt&quot;&gt;考生成绩通知&lt;/span&gt;" style="rounded=0;whiteSpace=wrap;html=1;" vertex="1" parent="1">
          <mxGeometry x="180" y="420" width="100" height="50" as="geometry" />
        </mxCell>
        <mxCell id="0fItrinfHYFu_SuVGKTm-6" value="&lt;span style=&quot;font-size: 10.5pt&quot;&gt;成绩统计&lt;/span&gt;" style="rounded=0;whiteSpace=wrap;html=1;" vertex="1" parent="1">
          <mxGeometry x="400" y="180" width="100" height="50" as="geometry" />
        </mxCell>
        <mxCell id="0fItrinfHYFu_SuVGKTm-7" value="&lt;span style=&quot;font-size: 10.5pt&quot;&gt;试题难度分析&lt;/span&gt;" style="rounded=0;whiteSpace=wrap;html=1;" vertex="1" parent="1">
          <mxGeometry x="340" y="250" width="100" height="50" as="geometry" />
        </mxCell>
        <mxCell id="0fItrinfHYFu_SuVGKTm-8" value="&lt;span style=&quot;font-size: 10.5pt&quot;&gt;考试信息查询&lt;/span&gt;" style="rounded=0;whiteSpace=wrap;html=1;" vertex="1" parent="1">
          <mxGeometry x="480" y="250" width="100" height="50" as="geometry" />
        </mxCell>
        <mxCell id="0fItrinfHYFu_SuVGKTm-9" value="" style="endArrow=classic;html=1;exitX=0;exitY=0.5;exitDx=0;exitDy=0;entryX=0.5;entryY=0;entryDx=0;entryDy=0;" edge="1" parent="1" source="0fItrinfHYFu_SuVGKTm-11" target="0fItrinfHYFu_SuVGKTm-2">
          <mxGeometry width="50" height="50" relative="1" as="geometry">
            <mxPoint x="70" y="80" as="sourcePoint" />
            <mxPoint x="120" y="30" as="targetPoint" />
          </mxGeometry>
        </mxCell>
        <mxCell id="0fItrinfHYFu_SuVGKTm-31" style="edgeStyle=orthogonalEdgeStyle;rounded=0;orthogonalLoop=1;jettySize=auto;html=1;" edge="1" parent="1" source="0fItrinfHYFu_SuVGKTm-10" target="0fItrinfHYFu_SuVGKTm-30">
          <mxGeometry relative="1" as="geometry">
            <Array as="points">
              <mxPoint x="260" y="320" />
              <mxPoint x="310" y="320" />
            </Array>
          </mxGeometry>
        </mxCell>
        <mxCell id="0fItrinfHYFu_SuVGKTm-10" value="" style="rhombus;whiteSpace=wrap;html=1;" vertex="1" parent="1">
          <mxGeometry x="235" y="290" width="50" height="10" as="geometry" />
        </mxCell>
        <mxCell id="0fItrinfHYFu_SuVGKTm-27" style="edgeStyle=orthogonalEdgeStyle;rounded=0;orthogonalLoop=1;jettySize=auto;html=1;" edge="1" parent="1" source="0fItrinfHYFu_SuVGKTm-11" target="0fItrinfHYFu_SuVGKTm-3">
          <mxGeometry relative="1" as="geometry" />
        </mxCell>
        <mxCell id="0fItrinfHYFu_SuVGKTm-11" value="&lt;font style=&quot;font-size: 14px&quot;&gt;考务管理&lt;/font&gt;" style="rounded=0;whiteSpace=wrap;html=1;" vertex="1" parent="1">
          <mxGeometry x="210" y="90" width="100" height="50" as="geometry" />
        </mxCell>
        <mxCell id="0fItrinfHYFu_SuVGKTm-22" value="" style="group" vertex="1" connectable="0" parent="1">
          <mxGeometry x="100.87627564304205" y="120" width="49.12372435695795" height="26.12372435695795" as="geometry" />
        </mxCell>
        <mxCell id="0fItrinfHYFu_SuVGKTm-17" value="" style="endArrow=classic;html=1;startArrow=none;" edge="1" parent="0fItrinfHYFu_SuVGKTm-22" source="0fItrinfHYFu_SuVGKTm-18">
          <mxGeometry x="-0.8762756430420495" width="50" height="50" as="geometry">
            <mxPoint x="2.1237243569579505" y="26" as="sourcePoint" />
            <mxPoint x="49.12372435695795" as="targetPoint" />
          </mxGeometry>
        </mxCell>
        <mxCell id="0fItrinfHYFu_SuVGKTm-18" value="" style="ellipse;whiteSpace=wrap;html=1;aspect=fixed;direction=south;rotation=-15;" vertex="1" parent="0fItrinfHYFu_SuVGKTm-22">
          <mxGeometry x="1.1237243569579505" y="15" width="10" height="10" as="geometry" />
        </mxCell>
        <mxCell id="0fItrinfHYFu_SuVGKTm-23" value="&lt;font style=&quot;font-size: 10px&quot;&gt;考生名册&lt;/font&gt;" style="text;html=1;strokeColor=none;fillColor=none;align=center;verticalAlign=middle;whiteSpace=wrap;rounded=0;" vertex="1" parent="1">
          <mxGeometry x="71" y="105" width="59" height="20" as="geometry" />
        </mxCell>
        <mxCell id="0fItrinfHYFu_SuVGKTm-30" value="&lt;span style=&quot;font-size: 10.5pt&quot;&gt;错误成绩返回重审&lt;/span&gt;" style="rounded=0;whiteSpace=wrap;html=1;" vertex="1" parent="1">
          <mxGeometry x="290" y="340" width="100" height="50" as="geometry" />
        </mxCell>
        <mxCell id="0fItrinfHYFu_SuVGKTm-34" value="" style="endArrow=classic;html=1;exitX=1;exitY=0.5;exitDx=0;exitDy=0;entryX=0;entryY=0;entryDx=0;entryDy=0;" edge="1" parent="1" source="0fItrinfHYFu_SuVGKTm-11" target="0fItrinfHYFu_SuVGKTm-6">
          <mxGeometry width="50" height="50" relative="1" as="geometry">
            <mxPoint x="320" y="170" as="sourcePoint" />
            <mxPoint x="370" y="120" as="targetPoint" />
          </mxGeometry>
        </mxCell>
        <mxCell id="0fItrinfHYFu_SuVGKTm-35" value="" style="endArrow=classic;html=1;entryX=0.5;entryY=0;entryDx=0;entryDy=0;exitX=0.5;exitY=1;exitDx=0;exitDy=0;" edge="1" parent="1" source="0fItrinfHYFu_SuVGKTm-6" target="0fItrinfHYFu_SuVGKTm-7">
          <mxGeometry width="50" height="50" relative="1" as="geometry">
            <mxPoint x="430" y="350" as="sourcePoint" />
            <mxPoint x="480" y="300" as="targetPoint" />
          </mxGeometry>
        </mxCell>
        <mxCell id="0fItrinfHYFu_SuVGKTm-36" value="" style="endArrow=classic;html=1;exitX=0.5;exitY=1;exitDx=0;exitDy=0;entryX=0.5;entryY=0;entryDx=0;entryDy=0;" edge="1" parent="1" source="0fItrinfHYFu_SuVGKTm-6" target="0fItrinfHYFu_SuVGKTm-8">
          <mxGeometry width="50" height="50" relative="1" as="geometry">
            <mxPoint x="500" y="370" as="sourcePoint" />
            <mxPoint x="550" y="320" as="targetPoint" />
          </mxGeometry>
        </mxCell>
        <mxCell id="0fItrinfHYFu_SuVGKTm-46" value="" style="endArrow=classic;html=1;startArrow=none;" edge="1" parent="1">
          <mxGeometry width="50" height="50" relative="1" as="geometry">
            <mxPoint x="280" y="200" as="sourcePoint" />
            <mxPoint x="280" y="150" as="targetPoint" />
          </mxGeometry>
        </mxCell>
        <mxCell id="0fItrinfHYFu_SuVGKTm-48" value="" style="ellipse;whiteSpace=wrap;html=1;aspect=fixed;" vertex="1" parent="1">
          <mxGeometry x="275" y="200" width="10" height="10" as="geometry" />
        </mxCell>
        <mxCell id="0fItrinfHYFu_SuVGKTm-51" value="正确成绩清单" style="text;html=1;strokeColor=none;fillColor=none;align=center;verticalAlign=middle;whiteSpace=wrap;rounded=0;" vertex="1" parent="1">
          <mxGeometry x="290" y="170" width="80" height="20" as="geometry" />
        </mxCell>
        <mxCell id="0fItrinfHYFu_SuVGKTm-52" value="" style="endArrow=classic;html=1;" edge="1" parent="1">
          <mxGeometry width="50" height="50" relative="1" as="geometry">
            <mxPoint x="370" y="140" as="sourcePoint" />
            <mxPoint x="330" y="110" as="targetPoint" />
          </mxGeometry>
        </mxCell>
        <mxCell id="0fItrinfHYFu_SuVGKTm-53" value="" style="ellipse;whiteSpace=wrap;html=1;aspect=fixed;" vertex="1" parent="1">
          <mxGeometry x="370" y="136.12" width="10" height="10" as="geometry" />
        </mxCell>
        <mxCell id="0fItrinfHYFu_SuVGKTm-54" value="成绩统计数据&lt;br&gt;试题难度分析报告" style="text;html=1;strokeColor=none;fillColor=none;align=center;verticalAlign=middle;whiteSpace=wrap;rounded=0;" vertex="1" parent="1">
          <mxGeometry x="360" y="105" width="100" height="20" as="geometry" />
        </mxCell>
      </root>
    </mxGraphModel>
  </diagram>
</mxfile>
